<svg width="48" height="48" viewBox="0 0 48 48" fill="none" xmlns="http://www.w3.org/2000/svg">
<path d="M28 10C28.5177 9.99999 29.0153 10.2007 29.388 10.56L29.562 10.75L36.96 20H38C39.5304 19.9999 41.003 20.5847 42.1165 21.6346C43.23 22.6845 43.9002 24.1202 43.99 25.648L44 26V34C44 34.5304 43.7893 35.0391 43.4142 35.4142C43.0391 35.7893 42.5304 36 42 36H39.658C39.244 37.1697 38.4776 38.1823 37.4644 38.8985C36.4511 39.6147 35.2408 39.9992 34 39.9992C32.7592 39.9992 31.5489 39.6147 30.5357 38.8985C29.5224 38.1823 28.756 37.1697 28.342 36H19.658C19.244 37.1697 18.4776 38.1823 17.4643 38.8985C16.4511 39.6147 15.2408 39.9992 14 39.9992C12.7592 39.9992 11.5489 39.6147 10.5356 38.8985C9.52241 38.1823 8.75603 37.1697 8.342 36H6C5.46957 36 4.96086 35.7893 4.58579 35.4142C4.21071 35.0391 4 34.5304 4 34V22L4.014 21.766L4.03 21.654L4.064 21.498L4.088 21.426L4.116 21.326L8.144 11.258C8.29227 10.8869 8.54832 10.5687 8.87914 10.3445C9.20995 10.1202 9.60036 10.0003 10 10H28ZM14 32C13.4696 32 12.9609 32.2107 12.5858 32.5858C12.2107 32.9609 12 33.4696 12 34C12 34.5304 12.2107 35.0391 12.5858 35.4142C12.9609 35.7893 13.4696 36 14 36C14.5304 36 15.0391 35.7893 15.4142 35.4142C15.7893 35.0391 16 34.5304 16 34C16 33.4696 15.7893 32.9609 15.4142 32.5858C15.0391 32.2107 14.5304 32 14 32ZM34 32C33.4696 32 32.9609 32.2107 32.5858 32.5858C32.2107 32.9609 32 33.4696 32 34C32 34.5304 32.2107 35.0391 32.5858 35.4142C32.9609 35.7893 33.4696 36 34 36C34.5304 36 35.0391 35.7893 35.4142 35.4142C35.7893 35.0391 36 34.5304 36 34C36 33.4696 35.7893 32.9609 35.4142 32.5858C35.0391 32.2107 34.5304 32 34 32ZM22 14H11.352L8.952 20H22V14ZM27.04 14H26V20H31.84L27.04 14Z" fill="white"/>
</svg>
