<svg width="48" height="48" viewBox="0 0 48 48" fill="none" xmlns="http://www.w3.org/2000/svg">
<path d="M16.22 38.9C14.0088 38.0852 12.0411 36.7216 10.5018 34.9373C8.96239 33.1531 7.90193 31.0067 7.42 28.7L4.1 13.08C3.62 10.92 5 8.80001 7.16 8.34001L26.7 4.20001L26.76 4.18001C28.9 3.76001 31 5.14001 31.44 7.26001L32.14 10.6L40.84 12.46H40.9C43 12.94 44.36 15.06 43.92 17.18L40.6 32.82C40.2168 34.6166 39.4834 36.3202 38.4417 37.8333C37.4001 39.3464 36.0705 40.6395 34.529 41.6387C32.9874 42.6379 31.2642 43.3237 29.4576 43.6568C27.651 43.9898 25.7965 43.9638 24 43.58C20.953 42.9422 18.2112 41.2929 16.22 38.9ZM40 16.36L20.46 12.2L17.14 27.84V27.9C16 33.26 19.46 38.54 24.84 39.68C30.22 40.82 35.54 37.38 36.68 32L40 16.36ZM32 33C31.3686 34.0701 30.4166 34.9144 29.2787 35.4133C28.1408 35.9123 26.8748 36.0405 25.66 35.78C24.4485 35.522 23.3479 34.8916 22.5123 33.9771C21.6768 33.0627 21.148 31.9099 21 30.68L32 33ZM16.94 10.34L8 12.26L11.32 27.88L11.34 27.94C11.64 29.36 12.24 30.64 13.06 31.74C12.86 30.2 12.9 28.6 13.24 27L14.1 23C13.2 22.84 12.42 22.34 12 21.62C12.12 20.4 13.12 19.32 14.5 19H15L16.56 11.38C16.64 11 16.76 10.66 16.94 10.34ZM30.06 24.46C30.7 23.4 32.06 22.84 33.44 23.14C34.82 23.42 35.82 24.48 36 25.72C35.34 26.76 34 27.32 32.6 27C31.22 26.74 30.22 25.68 30.06 24.46ZM20.3 22.38C20.94 21.32 22.28 20.76 23.66 21.06C25 21.34 26.06 22.42 26.22 23.64C25.56 24.68 24.22 25.26 22.84 25C21.46 24.66 20.46 23.6 20.3 22.38ZM23.94 8.86001L27.86 9.70001L27.54 8.10001L23.94 8.86001Z" fill="white"/>
</svg>
