<svg width="48" height="48" viewBox="0 0 48 48" fill="none" xmlns="http://www.w3.org/2000/svg">
<path d="M34 18C34 16.9391 33.5786 15.9217 32.8284 15.1716C32.0783 14.4214 31.0609 14 30 14M30 30C32.5241 29.9993 34.9836 29.2027 37.0288 27.7235C39.074 26.2443 40.6008 24.1579 41.3919 21.761C42.183 19.3642 42.1981 16.7789 41.4352 14.3729C40.6723 11.9669 39.1701 9.86272 37.1424 8.35966C35.1147 6.85661 32.6646 6.03121 30.1408 6.00087C27.6169 5.97052 25.1477 6.73678 23.0844 8.19065C21.0212 9.64452 19.4688 11.712 18.6483 14.0989C17.8278 16.4859 17.7808 19.0708 18.514 21.486L18 22L6.586 33.414C6.2109 33.789 6.00011 34.2976 6 34.828V40C6 40.5304 6.21071 41.0391 6.58579 41.4142C6.96086 41.7893 7.46957 42 8 42H12C12.5304 42 13.0391 41.7893 13.4142 41.4142C13.7893 41.0391 14 40.5304 14 40C14 39.4696 14.2107 38.9609 14.5858 38.5858C14.9609 38.2107 15.4696 38 16 38C16.5304 38 17.0391 37.7893 17.4142 37.4142C17.7893 37.0391 18 36.5304 18 36C18 35.4696 18.2107 34.9609 18.5858 34.5858C18.9609 34.2107 19.4696 34 20 34H21.172C21.7024 33.9999 22.211 33.7891 22.586 33.414L26 30L26.514 29.486C27.6444 29.8279 28.819 30.0011 30 30Z" stroke="white" stroke-width="4" stroke-linecap="round" stroke-linejoin="round"/>
</svg>
