<svg width="422" height="526" viewBox="0 0 422 526" fill="none" xmlns="http://www.w3.org/2000/svg">
<rect width="421.333" height="526" rx="16" fill="#56554A"/>
<path d="M60 42C60.5177 42 61.0153 42.2007 61.388 42.56L61.562 42.75L68.96 52H70C71.5304 51.9999 73.003 52.5847 74.1165 53.6346C75.23 54.6845 75.9002 56.1202 75.99 57.648L76 58V66C76 66.5304 75.7893 67.0391 75.4142 67.4142C75.0391 67.7893 74.5304 68 74 68H71.658C71.244 69.1697 70.4776 70.1823 69.4644 70.8985C68.4511 71.6147 67.2408 71.9992 66 71.9992C64.7592 71.9992 63.5489 71.6147 62.5357 70.8985C61.5224 70.1823 60.756 69.1697 60.342 68H51.658C51.244 69.1697 50.4776 70.1823 49.4643 70.8985C48.4511 71.6147 47.2408 71.9992 46 71.9992C44.7592 71.9992 43.5489 71.6147 42.5356 70.8985C41.5224 70.1823 40.756 69.1697 40.342 68H38C37.4696 68 36.9609 67.7893 36.5858 67.4142C36.2107 67.0391 36 66.5304 36 66V54L36.014 53.766L36.03 53.654L36.064 53.498L36.088 53.426L36.116 53.326L40.144 43.258C40.2923 42.8869 40.5483 42.5687 40.8791 42.3445C41.21 42.1202 41.6004 42.0003 42 42H60ZM46 64C45.4696 64 44.9609 64.2107 44.5858 64.5858C44.2107 64.9609 44 65.4696 44 66C44 66.5304 44.2107 67.0391 44.5858 67.4142C44.9609 67.7893 45.4696 68 46 68C46.5304 68 47.0391 67.7893 47.4142 67.4142C47.7893 67.0391 48 66.5304 48 66C48 65.4696 47.7893 64.9609 47.4142 64.5858C47.0391 64.2107 46.5304 64 46 64ZM66 64C65.4696 64 64.9609 64.2107 64.5858 64.5858C64.2107 64.9609 64 65.4696 64 66C64 66.5304 64.2107 67.0391 64.5858 67.4142C64.9609 67.7893 65.4696 68 66 68C66.5304 68 67.0391 67.7893 67.4142 67.4142C67.7893 67.0391 68 66.5304 68 66C68 65.4696 67.7893 64.9609 67.4142 64.5858C67.0391 64.2107 66.5304 64 66 64ZM54 46H43.352L40.952 52H54V46ZM59.04 46H58V52H63.84L59.04 46Z" fill="white"/>
<path d="M43.368 488.28C41.3147 488.28 39.5507 487.869 38.076 487.048C36.62 486.208 35.5 485.032 34.716 483.52C33.932 481.989 33.54 480.188 33.54 478.116C33.54 476.044 33.932 474.252 34.716 472.74C35.5 471.228 36.62 470.061 38.076 469.24C39.5507 468.4 41.3147 467.98 43.368 467.98C44.7493 467.98 45.9907 468.176 47.092 468.568C48.212 468.96 49.1733 469.539 49.976 470.304L48.8 473.16C47.9227 472.451 47.0733 471.947 46.252 471.648C45.4493 471.331 44.5253 471.172 43.48 471.172C41.4827 471.172 39.952 471.779 38.888 472.992C37.8427 474.187 37.32 475.895 37.32 478.116C37.32 480.337 37.8427 482.055 38.888 483.268C39.952 484.481 41.4827 485.088 43.48 485.088C44.5253 485.088 45.4493 484.939 46.252 484.64C47.0733 484.323 47.9227 483.8 48.8 483.072L49.976 485.928C49.1733 486.675 48.212 487.253 47.092 487.664C45.9907 488.075 44.7493 488.28 43.368 488.28ZM58.0398 488.28C56.8078 488.28 55.7251 487.991 54.7918 487.412C53.8584 486.815 53.1304 485.965 52.6078 484.864C52.0851 483.763 51.8238 482.447 51.8238 480.916C51.8238 479.385 52.0851 478.079 52.6078 476.996C53.1304 475.895 53.8584 475.055 54.7918 474.476C55.7251 473.879 56.8078 473.58 58.0398 473.58C59.2344 473.58 60.2798 473.879 61.1758 474.476C62.0904 475.055 62.6971 475.839 62.9958 476.828H62.6878L62.9958 473.86H66.3558C66.2998 474.439 66.2438 475.027 66.1878 475.624C66.1504 476.221 66.1318 476.809 66.1318 477.388V488H62.6598L62.6318 485.088H62.9678C62.6691 486.059 62.0624 486.833 61.1478 487.412C60.2331 487.991 59.1971 488.28 58.0398 488.28ZM59.0198 485.592C60.1211 485.592 61.0078 485.209 61.6798 484.444C62.3518 483.66 62.6878 482.484 62.6878 480.916C62.6878 479.348 62.3518 478.181 61.6798 477.416C61.0078 476.651 60.1211 476.268 59.0198 476.268C57.9184 476.268 57.0318 476.651 56.3598 477.416C55.6878 478.181 55.3518 479.348 55.3518 480.916C55.3518 482.484 55.6784 483.66 56.3318 484.444C57.0038 485.209 57.8998 485.592 59.0198 485.592ZM69.9151 488V477.472C69.9151 476.875 69.8964 476.268 69.8591 475.652C69.8404 475.036 69.7937 474.439 69.7191 473.86H73.1071L73.4991 477.724H72.9391C73.1257 476.791 73.4337 476.016 73.8631 475.4C74.3111 474.784 74.8524 474.327 75.4871 474.028C76.1217 473.729 76.8124 473.58 77.5591 473.58C77.8951 473.58 78.1657 473.599 78.3711 473.636C78.5764 473.655 78.7817 473.701 78.9871 473.776L78.9591 476.856C78.6044 476.707 78.2964 476.613 78.0351 476.576C77.7924 476.539 77.4844 476.52 77.1111 476.52C76.3084 476.52 75.6271 476.688 75.0671 477.024C74.5257 477.36 74.1151 477.827 73.8351 478.424C73.5737 479.021 73.4431 479.703 73.4431 480.468V488H69.9151ZM90.3993 488.28C88.3459 488.28 86.5819 487.869 85.1073 487.048C83.6513 486.208 82.5313 485.032 81.7473 483.52C80.9633 481.989 80.5713 480.188 80.5713 478.116C80.5713 476.044 80.9633 474.252 81.7473 472.74C82.5313 471.228 83.6513 470.061 85.1073 469.24C86.5819 468.4 88.3459 467.98 90.3993 467.98C91.7806 467.98 93.0219 468.176 94.1233 468.568C95.2433 468.96 96.2046 469.539 97.0073 470.304L95.8313 473.16C94.9539 472.451 94.1046 471.947 93.2833 471.648C92.4806 471.331 91.5566 471.172 90.5113 471.172C88.5139 471.172 86.9833 471.779 85.9193 472.992C84.8739 474.187 84.3513 475.895 84.3513 478.116C84.3513 480.337 84.8739 482.055 85.9193 483.268C86.9833 484.481 88.5139 485.088 90.5113 485.088C91.5566 485.088 92.4806 484.939 93.2833 484.64C94.1046 484.323 94.9539 483.8 95.8313 483.072L97.0073 485.928C96.2046 486.675 95.2433 487.253 94.1233 487.664C93.0219 488.075 91.7806 488.28 90.3993 488.28ZM100.103 488V473.86H103.603V488H100.103ZM99.9072 471.2V467.784H103.799V471.2H99.9072ZM113.452 488.28C111.772 488.28 110.503 487.841 109.644 486.964C108.785 486.087 108.356 484.771 108.356 483.016V476.492H105.64V473.86H108.356V470.248L111.856 469.352V473.86H115.636V476.492H111.856V482.792C111.856 483.763 112.043 484.444 112.416 484.836C112.789 485.228 113.303 485.424 113.956 485.424C114.311 485.424 114.609 485.396 114.852 485.34C115.113 485.284 115.365 485.209 115.608 485.116V487.888C115.291 488.019 114.936 488.112 114.544 488.168C114.171 488.243 113.807 488.28 113.452 488.28ZM117.952 494.356L117.14 491.584C118.017 491.397 118.755 491.183 119.352 490.94C119.949 490.697 120.444 490.38 120.836 489.988C121.228 489.596 121.555 489.092 121.816 488.476L122.516 486.824L122.432 488.196L116.272 473.86H119.996L124.42 484.892H123.608L128.06 473.86H131.588L125.148 488.784C124.719 489.792 124.252 490.623 123.748 491.276C123.244 491.948 122.703 492.48 122.124 492.872C121.545 493.283 120.911 493.6 120.22 493.824C119.529 494.048 118.773 494.225 117.952 494.356Z" fill="white"/>
</svg>
