<svg xmlns="http://www.w3.org/2000/svg" width="51" height="37" viewBox="0 0 51 37" fill="none">
  <path d="M0 0V16.8669H1.69993C2.69969 8.93024 9.00037 2.67895 17.0001 1.6866V0H0Z" fill="#0D403B"/>
  <path d="M51 0H33.9999V1.6866C41.9992 2.67853 48.2999 8.92982 49.3001 16.8669H51V0Z" fill="#0D403B"/>
  <path d="M51 37.1065V20.2397H49.3001C48.3003 28.1763 41.9996 34.4276 33.9999 35.4195V37.1061H51V37.1065Z" fill="#0D403B"/>
  <path d="M0 37.1065H17.0001V35.4199C9.0008 34.428 2.70011 28.1767 1.69993 20.2401H0V37.107V37.1065Z" fill="#0D403B"/>
  <path d="M18.0826 19.8603H12.0735V24.8389H18.1382C19.2827 24.8389 20.1271 24.6503 20.672 24.2722C21.2164 23.8945 21.4889 23.2533 21.4889 22.3498C21.4889 21.3912 21.244 20.7369 20.7552 20.3862C20.2659 20.0363 19.3748 19.8607 18.0831 19.8607H18.0826V19.8603ZM17.7504 12.226H12.0735V17.0387H17.8055C18.8757 17.0387 19.6701 16.845 20.187 16.4581C20.7038 16.0707 20.9623 15.4253 20.9623 14.5218C20.9623 13.6183 20.731 13.0099 20.2702 12.6963C19.8085 12.3826 18.9687 12.226 17.75 12.226H17.7504ZM21.2669 18.1729V18.4217C23.9255 18.772 25.2549 20.1921 25.2549 22.6812C25.2549 24.5437 24.719 25.9083 23.6488 26.7747C22.5782 27.6416 20.944 28.0748 18.7476 28.0748H8.30784V8.98961H18.3597C20.6122 8.98961 22.2366 9.39042 23.2334 10.1929C24.2306 10.9949 24.7288 12.3274 24.7288 14.1896C24.7288 15.2405 24.4194 16.1074 23.8011 16.7894C23.182 17.4719 22.3376 17.9329 21.2674 18.1725L21.2669 18.1729Z" fill="#0D403B"/>
  <path d="M35.3387 28.4895C32.2371 28.4895 29.9478 27.9734 28.4711 26.9406C26.9939 25.9079 26.228 24.1745 26.1724 21.7406H30.1604C30.2338 23.1236 30.6866 24.0688 31.5174 24.5757C32.3483 25.0831 33.6129 25.3365 35.3111 25.3365C37.2495 25.3365 38.5739 25.1248 39.2847 24.7004C39.995 24.2764 40.3506 23.6125 40.3506 22.7089C40.3506 22.3957 40.295 22.1191 40.1847 21.8795C40.0739 21.64 39.9445 21.4463 39.7968 21.2985C39.6488 21.1512 39.4272 21.0223 39.1319 20.9112C38.8366 20.8005 38.5735 20.7175 38.3426 20.6624C38.1113 20.6068 37.7842 20.5428 37.3594 20.4687L31.6825 19.3623C29.9839 19.0301 28.7333 18.4402 27.9304 17.5919C27.1272 16.7439 26.7257 15.5912 26.7257 14.1345C26.7257 12.4567 27.4038 11.1103 28.7609 10.096C30.1179 9.08223 32.3097 8.5749 35.3378 8.5749C38.366 8.5749 40.3918 9.06833 41.804 10.0548C43.2162 11.0412 43.9779 12.7426 44.0887 15.158H40.295C40.1843 13.8124 39.7413 12.9038 38.966 12.4335C38.1907 11.9633 36.9907 11.7283 35.3663 11.7283C33.5199 11.7283 32.2507 11.9405 31.5586 12.3645C30.8665 12.7889 30.5202 13.3602 30.5202 14.0793C30.5202 14.6696 30.7184 15.1352 31.1156 15.4763C31.5123 15.8177 32.1633 16.0707 33.0676 16.237L38.5505 17.2601C40.5259 17.6289 41.961 18.196 42.8568 18.961C43.7522 19.7264 44.1999 20.9209 44.1999 22.5431C44.1999 24.516 43.5349 26.0005 42.2059 26.9962C40.8764 27.9919 38.5875 28.4895 35.3382 28.4895H35.3387Z" fill="#0D403B"/>
</svg>
