<svg width="48" height="48" viewBox="0 0 48 48" fill="none" xmlns="http://www.w3.org/2000/svg">
<path d="M45 39H43.5V13.5C43.5 13.1022 43.342 12.7206 43.0607 12.4393C42.7794 12.158 42.3978 12 42 12H34.5V7.5C34.5 7.10218 34.342 6.72064 34.0607 6.43934C33.7794 6.15804 33.3978 6 33 6H15C14.6022 6 14.2206 6.15804 13.9393 6.43934C13.658 6.72064 13.5 7.10218 13.5 7.5V18H6C5.60218 18 5.22064 18.158 4.93934 18.4393C4.65804 18.7206 4.5 19.1022 4.5 19.5V39H3C2.60218 39 2.22064 39.158 1.93934 39.4393C1.65804 39.7206 1.5 40.1022 1.5 40.5C1.5 40.8978 1.65804 41.2794 1.93934 41.5607C2.22064 41.842 2.60218 42 3 42H45C45.3978 42 45.7794 41.842 46.0607 41.5607C46.342 41.2794 46.5 40.8978 46.5 40.5C46.5 40.1022 46.342 39.7206 46.0607 39.4393C45.7794 39.158 45.3978 39 45 39ZM7.5 21H15C15.3978 21 15.7794 20.842 16.0607 20.5607C16.342 20.2794 16.5 19.8978 16.5 19.5V9H31.5V13.5C31.5 13.8978 31.658 14.2794 31.9393 14.5607C32.2206 14.842 32.6022 15 33 15H40.5V39H28.5V31.5C28.5 31.1022 28.342 30.7206 28.0607 30.4393C27.7794 30.158 27.3978 30 27 30H21C20.6022 30 20.2206 30.158 19.9393 30.4393C19.658 30.7206 19.5 31.1022 19.5 31.5V39H7.5V21ZM25.5 39H22.5V33H25.5V39ZM21 13.5C21 13.1022 21.158 12.7206 21.4393 12.4393C21.7206 12.158 22.1022 12 22.5 12H25.5C25.8978 12 26.2794 12.158 26.5607 12.4393C26.842 12.7206 27 13.1022 27 13.5C27 13.8978 26.842 14.2794 26.5607 14.5607C26.2794 14.842 25.8978 15 25.5 15H22.5C22.1022 15 21.7206 14.842 21.4393 14.5607C21.158 14.2794 21 13.8978 21 13.5ZM21 19.5C21 19.1022 21.158 18.7206 21.4393 18.4393C21.7206 18.158 22.1022 18 22.5 18H25.5C25.8978 18 26.2794 18.158 26.5607 18.4393C26.842 18.7206 27 19.1022 27 19.5C27 19.8978 26.842 20.2794 26.5607 20.5607C26.2794 20.842 25.8978 21 25.5 21H22.5C22.1022 21 21.7206 20.842 21.4393 20.5607C21.158 20.2794 21 19.8978 21 19.5ZM31.5 19.5C31.5 19.1022 31.658 18.7206 31.9393 18.4393C32.2206 18.158 32.6022 18 33 18H36C36.3978 18 36.7794 18.158 37.0607 18.4393C37.342 18.7206 37.5 19.1022 37.5 19.5C37.5 19.8978 37.342 20.2794 37.0607 20.5607C36.7794 20.842 36.3978 21 36 21H33C32.6022 21 32.2206 20.842 31.9393 20.5607C31.658 20.2794 31.5 19.8978 31.5 19.5ZM16.5 25.5C16.5 25.8978 16.342 26.2794 16.0607 26.5607C15.7794 26.842 15.3978 27 15 27H12C11.6022 27 11.2206 26.842 10.9393 26.5607C10.658 26.2794 10.5 25.8978 10.5 25.5C10.5 25.1022 10.658 24.7206 10.9393 24.4393C11.2206 24.158 11.6022 24 12 24H15C15.3978 24 15.7794 24.158 16.0607 24.4393C16.342 24.7206 16.5 25.1022 16.5 25.5ZM16.5 31.5C16.5 31.8978 16.342 32.2794 16.0607 32.5607C15.7794 32.842 15.3978 33 15 33H12C11.6022 33 11.2206 32.842 10.9393 32.5607C10.658 32.2794 10.5 31.8978 10.5 31.5C10.5 31.1022 10.658 30.7206 10.9393 30.4393C11.2206 30.158 11.6022 30 12 30H15C15.3978 30 15.7794 30.158 16.0607 30.4393C16.342 30.7206 16.5 31.1022 16.5 31.5ZM21 25.5C21 25.1022 21.158 24.7206 21.4393 24.4393C21.7206 24.158 22.1022 24 22.5 24H25.5C25.8978 24 26.2794 24.158 26.5607 24.4393C26.842 24.7206 27 25.1022 27 25.5C27 25.8978 26.842 26.2794 26.5607 26.5607C26.2794 26.842 25.8978 27 25.5 27H22.5C22.1022 27 21.7206 26.842 21.4393 26.5607C21.158 26.2794 21 25.8978 21 25.5ZM31.5 25.5C31.5 25.1022 31.658 24.7206 31.9393 24.4393C32.2206 24.158 32.6022 24 33 24H36C36.3978 24 36.7794 24.158 37.0607 24.4393C37.342 24.7206 37.5 25.1022 37.5 25.5C37.5 25.8978 37.342 26.2794 37.0607 26.5607C36.7794 26.842 36.3978 27 36 27H33C32.6022 27 32.2206 26.842 31.9393 26.5607C31.658 26.2794 31.5 25.8978 31.5 25.5ZM31.5 31.5C31.5 31.1022 31.658 30.7206 31.9393 30.4393C32.2206 30.158 32.6022 30 33 30H36C36.3978 30 36.7794 30.158 37.0607 30.4393C37.342 30.7206 37.5 31.1022 37.5 31.5C37.5 31.8978 37.342 32.2794 37.0607 32.5607C36.7794 32.842 36.3978 33 36 33H33C32.6022 33 32.2206 32.842 31.9393 32.5607C31.658 32.2794 31.5 31.8978 31.5 31.5Z" fill="white"/>
</svg>
